Coordinates
version=1
nRows=14
nColumns=40
inDegrees=yes

Units are S.I. units (second, meters, Newtons, ...)
If the header above contains a line with 'inDegrees', this indicates whether rotational values are in degrees (yes) or radians (no).

endheader
time	pelvis_tilt	pelvis_list	pelvis_rotation	pelvis_tx	pelvis_ty	pelvis_tz	hip_flexion_r	hip_adduction_r	hip_rotation_r	knee_angle_r	knee_angle_r_beta	ankle_angle_r	subtalar_angle_r	mtp_angle_r	hip_flexion_l	hip_adduction_l	hip_rotation_l	knee_angle_l	knee_angle_l_beta	ankle_angle_l	subtalar_angle_l	mtp_angle_l	lumbar_extension	lumbar_bending	lumbar_rotation	arm_flex_r	arm_add_r	arm_rot_r	elbow_flex_r	pro_sup_r	wrist_flex_r	wrist_dev_r	arm_flex_l	arm_add_l	arm_rot_l	elbow_flex_l	pro_sup_l	wrist_flex_l	wrist_dev_l
      1.61500000	    -17.05615021	     -5.85520672	     -0.22622555	      0.13389529	      0.51536509	     -1.19827068	     86.54577035	    -44.87239869	      1.36514128	    109.30746785	      1.90777521	     35.45865670	      8.69951255	      0.00000000	    103.96742554	    -46.17359895	     18.92730343	    110.34616574	      1.92590391	     35.78301455	     21.73712059	      0.00000000	    -23.48206371	      5.35612937	     -1.93243497	     44.99959062	    -14.99999958	     44.99959062	     75.00017585	     45.00000026	      0.00000000	      0.00000000	     44.99959062	    -14.99999958	     44.99959062	     75.00017585	     45.00000026	      0.00000000	      0.00000000
      1.62000000	    -16.98348126	     -5.94271908	     -0.18504369	      0.13393997	      0.51403030	     -1.19830099	     86.56927875	    -44.98093422	      1.37574585	    109.50965232	      1.91130400	     35.57985841	      8.78156218	      0.00000000	    104.26672019	    -46.13273305	     19.27401253	    110.54539958	      1.92938120	     35.81904644	     21.79894043	      0.00000000	    -23.64384877	      5.44141005	     -1.99432452	     44.99960774	    -14.99999960	     44.99960774	     75.00017585	     45.00000026	      0.00000000	      0.00000000	     44.99960774	    -14.99999960	     44.99960774	     75.00017585	     45.00000026	      0.00000000	      0.00000000
      1.62500000	    -16.98304618	     -5.80717854	     -0.25559386	      0.13389218	      0.51247337	     -1.19791881	     87.03881306	    -44.94237011	      1.83542863	    109.77110839	      1.91586726	     35.59036227	      8.75052994	      0.00000000	    104.41033144	    -46.26311896	     19.32575356	    110.74011015	      1.93277954	     35.90746961	     21.89785066	      0.00000000	    -23.71271081	      5.33645525	     -1.69958207	     44.99962766	    -14.99999964	     44.99962766	     75.00017585	     45.00000026	      0.00000000	      0.00000000	     44.99962766	    -14.99999964	     44.99962766	     75.00017585	     45.00000026	      0.00000000	      0.00000000
      1.63000000	    -16.75380240	     -5.84438757	     -0.11640705	      0.13404940	      0.51151939	     -1.19810126	     86.91106509	    -45.21107898	      1.89162255	    109.96428862	      1.91923890	     35.73676547	      9.06656077	      0.00000000	    104.41501017	    -46.17393804	     19.51080485	    110.92497304	      1.93600600	     35.95168989	     21.98654544	      0.00000000	    -24.06311957	      5.37264140	     -1.94900340	     44.99964295	    -14.99999966	     44.99964295	     75.00017585	     45.00000026	      0.00000000	      0.00000000	     44.99964295	    -14.99999966	     44.99964295	     75.00017585	     45.00000026	      0.00000000	      0.00000000
      1.63500000	    -16.94058673	     -5.94993908	     -0.20800740	      0.13394157	      0.50957802	     -1.19788182	     87.28159125	    -45.11745552	      1.95426272	    110.19205217	      1.92321412	     35.75035435	      8.82259342	      0.00000000	    105.11343853	    -46.18819517	     20.01606075	    111.14888632	      1.93991403	     35.95660865	     22.04503439	      0.00000000	    -23.91930766	      5.45820817	     -1.86396508	     44.99965748	    -14.99999969	     44.99965748	     75.00017585	     45.00000026	      0.00000000	      0.00000000	     44.99965748	    -14.99999969	     44.99965748	     75.00017585	     45.00000026	      0.00000000	      0.00000000
      1.64000000	    -16.86423541	     -5.94621436	     -0.18175818	      0.13395074	      0.50826448	     -1.19781013	     87.44267855	    -45.19953684	      2.14923503	    110.40845427	      1.92699105	     35.86475302	      8.94059179	      0.00000000	    105.28635025	    -46.17310267	     20.22225916	    111.34468665	      1.94333139	     36.00856727	     22.07953755	      0.00000000	    -24.09378797	      5.40781127	     -1.98396337	     44.99966992	    -14.99999971	     44.99966992	     75.00017585	     45.00000026	      0.00000000	      0.00000000	     44.99966992	    -14.99999971	     44.99966992	     75.00017585	     45.00000026	      0.00000000	      0.00000000
      1.64500000	    -16.73940760	     -5.93178656	     -0.14513617	      0.13398271	      0.50709683	     -1.19772494	     87.54299693	    -45.31279523	      2.33548231	    110.62355095	      1.93074519	     35.99834833	      9.10731467	      0.00000000	    105.37700352	    -46.16118691	     20.39028942	    111.51762006	      1.94634964	     36.04805673	     22.11443670	      0.00000000	    -24.31871345	      5.38988324	     -2.01288356	     44.99968307	    -14.99999973	     44.99968307	     75.00017585	     45.00000026	      0.00000000	      0.00000000	     44.99968307	    -14.99999973	     44.99968307	     75.00017585	     45.00000026	      0.00000000	      0.00000000
      1.65000000	    -16.78832147	     -5.94892552	     -0.20523773	      0.13393107	      0.50550424	     -1.19748240	     87.85680821	    -45.27336278	      2.52001378	    110.85231913	      1.93473795	     35.98350140	      8.97070299	      0.00000000	    105.75939325	    -46.19925578	     20.70243823	    111.71946881	      1.94987257	     36.11752777	     22.21599677	      0.00000000	    -24.33333288	      5.40534730	     -1.86404152	     44.99969562	    -14.99999974	     44.99969562	     75.00017585	     45.00000026	      0.00000000	      0.00000000	     44.99969562	    -14.99999974	     44.99969562	     75.00017585	     45.00000026	      0.00000000	      0.00000000
      1.65500000	    -16.73102179	     -5.97503578	     -0.20998771	      0.13393947	      0.50419577	     -1.19736690	     87.99192621	    -45.31999140	      2.65019661	    111.05869863	      1.93833995	     36.06168198	      9.02997796	      0.00000000	    105.99694902	    -46.19682001	     20.97830974	    111.90672260	      1.95314076	     36.16275777	     22.27245823	      0.00000000	    -24.48104180	      5.41589226	     -1.85942026	     44.99970724	    -14.99999976	     44.99970724	     75.00017585	     45.00000026	      0.00000000	      0.00000000	     44.99970724	    -14.99999976	     44.99970724	     75.00017585	     45.00000026	      0.00000000	      0.00000000
      1.66000000	    -16.58508928	     -5.98403619	     -0.15796974	      0.13400877	      0.50313720	     -1.19733879	     88.00537476	    -45.45315240	      2.77796329	    111.25493463	      1.94176492	     36.23051688	      9.27749466	      0.00000000	    106.07130090	    -46.15918404	     21.16694082	    112.07409534	      1.95606197	     36.18033145	     22.27742821	      0.00000000	    -24.73625448	      5.40633275	     -1.95445516	     44.99971788	    -14.99999978	     44.99971788	     75.00017585	     45.00000026	      0.00000000	      0.00000000	     44.99971788	    -14.99999978	     44.99971788	     75.00017585	     45.00000026	      0.00000000	      0.00000000
      1.66500000	    -16.65001124	     -5.97371894	     -0.24709693	      0.13393892	      0.50150826	     -1.19703280	     88.38681439	    -45.37485883	      3.01559262	    111.48589275	      1.94579590	     36.19969523	      9.11468199	      0.00000000	    106.44352424	    -46.21519310	     21.45976088	    112.27634065	      1.95959182	     36.25287680	     22.37148161	      0.00000000	    -24.72968822	      5.40827769	     -1.71733038	     44.99972829	    -14.99999979	     44.99972829	     75.00017585	     45.00000026	      0.00000000	      0.00000000	     44.99972829	    -14.99999979	     44.99972829	     75.00017585	     45.00000026	      0.00000000	      0.00000000
      1.67000000	    -16.59600617	     -6.01993552	     -0.23380793	      0.13394322	      0.50020138	     -1.19697731	     88.49907217	    -45.44406101	      3.11672892	    111.68841213	      1.94933053	     36.28598259	      9.17832954	      0.00000000	    106.69369197	    -46.16408323	     21.75664041	    112.46645913	      1.96291001	     36.29486655	     22.38162748	      0.00000000	    -24.86832046	      5.41358161	     -1.84002775	     44.99973794	    -14.99999980	     44.99973794	     75.00017585	     45.00000026	      0.00000000	      0.00000000	     44.99973794	    -14.99999980	     44.99973794	     75.00017585	     45.00000026	      0.00000000	      0.00000000
      1.67500000	    -16.54469732	     -6.08005899	     -0.22826272	      0.13394837	      0.49892195	     -1.19694753	     88.59416628	    -45.50133114	      3.18967978	    111.87731478	      1.95262750	     36.36481888	      9.25234939	      0.00000000	    106.95501451	    -46.11055280	     22.07729154	    112.65526695	      1.96620533	     36.34848547	     22.40177405	      0.00000000	    -25.00639421	      5.47942604	     -1.83088164	     44.99974635	    -14.99999982	     44.99974635	     75.00017585	     45.00000026	      0.00000000	      0.00000000	     44.99974635	    -14.99999982	     44.99974635	     75.00017585	     45.00000026	      0.00000000	      0.00000000
      1.68000000	    -16.50002315	     -6.09125658	     -0.26358337	      0.13396322	      0.49761506	     -1.19675837	     88.76112801	    -45.50501655	      3.34044328	    112.08570976	      1.95626468	     36.41852888	      9.25633596	      0.00000000	    107.18082582	    -46.11938933	     22.34909313	    112.83771133	      1.96938958	     36.40246968	     22.44105106	      0.00000000	    -25.13505986	      5.46284547	     -1.78694450	     44.99975418	    -14.99999983	     44.99975418	     75.00017585	     45.00000026	      0.00000000	      0.00000000	     44.99975418	    -14.99999983	     44.99975418	     75.00017585	     45.00000026	      0.00000000	      0.00000000
